# xmcd
#
# Track frame offsets: 
#        150
#        13786
#        32525
#        57024
#        79277
#        95528
#        112379
#        130304
#        145606
#        162797
#        184672
#        202282
#        221664
#        235098
#        255606
#        266916
#        281156
#        301259
#        315356
#        328894
#
# Disc length: 4747 seconds
#
# Revision: 0
# Processed by: cddbd v1.5.2PL0 Copyright (c) Steve Scherf et al.
# Submitted via: ExactAudioCopy v1.3
#
DISCID=2a128914
DTITLE=Various Artist - Akella Presents - vol.196 - Americana  CD2
DYEAR=2019
DGENRE=Blues
TTITLE0=Delbert McClinton - Let's Get Down Like We Used To
TTITLE1=Dave P.Moore - You Gotta Move
TTITLE2=Henry McCullough - Poor Man's Moon
TTITLE3=Ellis Mano Band - Goodbye My Love
TTITLE4=Anders Osborne - Running
TTITLE5=Gurf Morlix - Feel Free
TTITLE6=Johnny Hoy and the Bluefish - A.T.
TTITLE7=Jack Tempchin - Never Had The Chance To Say Goodbye
TTITLE8=Sean Taylor - A Cold Wind Blows
TTITLE9=Keith Thompson - Working On The Railroad
TTITLE10=Blueberry Hill - 40 Days
TTITLE11=Hank Shizzoe - Make Me A Pallet On Your Floor
TTITLE12=Kerry Kearney - Girl From Memphis
TTITLE13=Paul Nelson - Lay a Little
TTITLE14=The Seamus McGarvey Band - Sea of Heartbreak
TTITLE15=Dry Riverbed Trio - Gone Are The Days
TTITLE16=John Cee Stannard - Call of Duty
TTITLE17=Mojo Martin - Nappin' When It Happened
TTITLE18=Guy Davis - Maybe I'll Go
TTITLE19=John Illsley - So It Goes
EXTD=
EXTT0=
EXTT1=
EXTT2=
EXTT3=
EXTT4=
EXTT5=
EXTT6=
EXTT7=
EXTT8=
EXTT9=
EXTT10=
EXTT11=
EXTT12=
EXTT13=
EXTT14=
EXTT15=
EXTT16=
EXTT17=
EXTT18=
EXTT19=
PLAYORDER=
